<mxfile host="app.diagrams.net" modified="2024-04-05T23:51:29.540Z" agent="Mozilla/5.0 (Windows NT 10.0; Win64; x64) AppleWebKit/537.36 (KHTML, like Gecko) Chrome/122.0.0.0 Safari/537.36 OPR/108.0.0.0" etag="oL9I26FTaGTiN9F-DyIN" version="24.2.2" type="github">
  <diagram name="Page-1" id="e7e014a7-5840-1c2e-5031-d8a46d1fe8dd">
    <mxGraphModel dx="1624" dy="921" grid="1" gridSize="10" guides="1" tooltips="1" connect="1" arrows="1" fold="1" page="1" pageScale="1" pageWidth="1169" pageHeight="826" background="none" math="0" shadow="0">
      <root>
        <mxCell id="0" />
        <mxCell id="1" parent="0" />
        <mxCell id="c_FFXOvCavrH5ceKtot7-41" value="Técnico" style="swimlane;whiteSpace=wrap" vertex="1" parent="1">
          <mxGeometry x="154.5" y="48" width="280" height="882" as="geometry" />
        </mxCell>
        <mxCell id="c_FFXOvCavrH5ceKtot7-43" value="App" style="swimlane;whiteSpace=wrap" vertex="1" parent="1">
          <mxGeometry x="434.5" y="48" width="295.5" height="882" as="geometry" />
        </mxCell>
        <mxCell id="c_FFXOvCavrH5ceKtot7-49" value="API" style="swimlane;whiteSpace=wrap" vertex="1" parent="1">
          <mxGeometry x="730" y="48" width="270" height="882" as="geometry" />
        </mxCell>
        <mxCell id="c_FFXOvCavrH5ceKtot7-50" value="Extrai dados sobre configurações do computador" style="whiteSpace=wrap;" vertex="1" parent="c_FFXOvCavrH5ceKtot7-49">
          <mxGeometry x="80" y="222" width="120" height="50" as="geometry" />
        </mxCell>
        <mxCell id="c_FFXOvCavrH5ceKtot7-53" value="" style="endArrow=open;strokeColor=#FF0000;endFill=1;rounded=0;exitX=1;exitY=0.5;exitDx=0;exitDy=0;entryX=0.5;entryY=0;entryDx=0;entryDy=0;" edge="1" parent="1" source="c_FFXOvCavrH5ceKtot7-42" target="c_FFXOvCavrH5ceKtot7-50">
          <mxGeometry relative="1" as="geometry">
            <mxPoint x="630" y="358" as="sourcePoint" />
            <mxPoint x="909" y="315" as="targetPoint" />
            <Array as="points">
              <mxPoint x="870" y="240" />
            </Array>
          </mxGeometry>
        </mxCell>
        <mxCell id="c_FFXOvCavrH5ceKtot7-54" value="" style="endArrow=open;strokeColor=#FF0000;endFill=1;rounded=0;entryX=0.5;entryY=0;entryDx=0;entryDy=0;exitX=0.5;exitY=1;exitDx=0;exitDy=0;" edge="1" parent="1" source="c_FFXOvCavrH5ceKtot7-50" target="c_FFXOvCavrH5ceKtot7-48">
          <mxGeometry relative="1" as="geometry">
            <mxPoint x="1140" y="390" as="sourcePoint" />
            <mxPoint x="610" y="390" as="targetPoint" />
          </mxGeometry>
        </mxCell>
        <mxCell id="c_FFXOvCavrH5ceKtot7-55" value="Consulta de Máquinas" style="shape=umlFrame;whiteSpace=wrap;html=1;pointerEvents=0;width=250;height=30;" vertex="1" parent="1">
          <mxGeometry x="100" y="10" width="950" height="960" as="geometry" />
        </mxCell>
        <mxCell id="c_FFXOvCavrH5ceKtot7-56" value="" style="ellipse;html=1;shape=endState;fillColor=#000000;strokeColor=#ff0000;" vertex="1" parent="1">
          <mxGeometry x="265" y="880" width="30" height="30" as="geometry" />
        </mxCell>
        <mxCell id="c_FFXOvCavrH5ceKtot7-57" value="" style="endArrow=open;strokeColor=#FF0000;endFill=1;rounded=0;exitX=0;exitY=0.5;exitDx=0;exitDy=0;entryX=0.5;entryY=0;entryDx=0;entryDy=0;" edge="1" parent="1" source="c_FFXOvCavrH5ceKtot7-48" target="c_FFXOvCavrH5ceKtot7-63">
          <mxGeometry relative="1" as="geometry">
            <mxPoint x="896" y="480" as="sourcePoint" />
            <mxPoint x="620" y="520" as="targetPoint" />
            <Array as="points">
              <mxPoint x="582" y="375" />
            </Array>
          </mxGeometry>
        </mxCell>
        <mxCell id="c_FFXOvCavrH5ceKtot7-58" value="&amp;lt;&amp;lt;Precondição&amp;gt;&amp;gt;&lt;div&gt;Ter executado a atividade&lt;br&gt;&quot;Consulta de equipamentos em unidades&quot;&lt;br&gt;&lt;/div&gt;" style="shape=note;size=20;whiteSpace=wrap;html=1;" vertex="1" parent="1">
          <mxGeometry x="460" y="88" width="230" height="70" as="geometry" />
        </mxCell>
        <mxCell id="c_FFXOvCavrH5ceKtot7-44" value="" style="ellipse;shape=startState;fillColor=#000000;strokeColor=#ff0000;" vertex="1" parent="1">
          <mxGeometry x="260" y="88" width="30" height="30" as="geometry" />
        </mxCell>
        <mxCell id="c_FFXOvCavrH5ceKtot7-45" value="" style="edgeStyle=elbowEdgeStyle;elbow=horizontal;verticalAlign=bottom;endArrow=open;endSize=8;strokeColor=#FF0000;endFill=1;rounded=0;exitX=0.507;exitY=0.833;exitDx=0;exitDy=0;exitPerimeter=0;" edge="1" parent="1" source="c_FFXOvCavrH5ceKtot7-44" target="c_FFXOvCavrH5ceKtot7-46">
          <mxGeometry x="484.5" y="148" as="geometry">
            <mxPoint x="555" y="138" as="targetPoint" />
          </mxGeometry>
        </mxCell>
        <mxCell id="c_FFXOvCavrH5ceKtot7-46" value="Seleciona a máquina a ser consultada da unidade" style="whiteSpace=wrap;" vertex="1" parent="1">
          <mxGeometry x="220" y="150" width="110" height="60" as="geometry" />
        </mxCell>
        <mxCell id="c_FFXOvCavrH5ceKtot7-42" value="Carrega icones " style="whiteSpace=wrap;" vertex="1" parent="1">
          <mxGeometry x="527.25" y="210" width="110" height="60" as="geometry" />
        </mxCell>
        <mxCell id="c_FFXOvCavrH5ceKtot7-61" value="" style="endArrow=open;strokeColor=#FF0000;endFill=1;rounded=0;exitX=1;exitY=0.5;exitDx=0;exitDy=0;entryX=0.5;entryY=0;entryDx=0;entryDy=0;" edge="1" parent="1" source="c_FFXOvCavrH5ceKtot7-46" target="c_FFXOvCavrH5ceKtot7-42">
          <mxGeometry relative="1" as="geometry">
            <mxPoint x="390" y="200" as="sourcePoint" />
            <mxPoint x="621" y="182" as="targetPoint" />
            <Array as="points">
              <mxPoint x="582" y="180" />
            </Array>
          </mxGeometry>
        </mxCell>
        <mxCell id="c_FFXOvCavrH5ceKtot7-48" value="Extrai chamados relacionados ao computador" style="whiteSpace=wrap;" vertex="1" parent="1">
          <mxGeometry x="815" y="350" width="110" height="50" as="geometry" />
        </mxCell>
        <mxCell id="c_FFXOvCavrH5ceKtot7-63" value="Carrega listas de chamados e lista de configuações" style="whiteSpace=wrap;" vertex="1" parent="1">
          <mxGeometry x="527.25" y="400" width="110" height="50" as="geometry" />
        </mxCell>
        <mxCell id="c_FFXOvCavrH5ceKtot7-64" value="Exibe lista expandida de configurações" style="whiteSpace=wrap;" vertex="1" parent="1">
          <mxGeometry x="527.25" y="480" width="110" height="50" as="geometry" />
        </mxCell>
        <mxCell id="c_FFXOvCavrH5ceKtot7-65" value="" style="endArrow=open;strokeColor=#FF0000;endFill=1;rounded=0;entryX=0.5;entryY=0;entryDx=0;entryDy=0;exitX=0.5;exitY=1;exitDx=0;exitDy=0;" edge="1" parent="1" source="c_FFXOvCavrH5ceKtot7-63" target="c_FFXOvCavrH5ceKtot7-64">
          <mxGeometry relative="1" as="geometry">
            <mxPoint x="880" y="330" as="sourcePoint" />
            <mxPoint x="880" y="360" as="targetPoint" />
          </mxGeometry>
        </mxCell>
        <mxCell id="c_FFXOvCavrH5ceKtot7-66" value="Consulta informações&#xa;de configurações" style="whiteSpace=wrap;" vertex="1" parent="1">
          <mxGeometry x="220" y="530" width="120" height="50" as="geometry" />
        </mxCell>
        <mxCell id="c_FFXOvCavrH5ceKtot7-67" value="Deseja verificar chamados?" style="rhombus;whiteSpace=wrap;html=1;" vertex="1" parent="1">
          <mxGeometry x="217.5" y="610" width="125" height="70" as="geometry" />
        </mxCell>
        <mxCell id="c_FFXOvCavrH5ceKtot7-68" value="" style="endArrow=open;strokeColor=#FF0000;endFill=1;rounded=0;entryX=0;entryY=0.5;entryDx=0;entryDy=0;exitX=0;exitY=0.5;exitDx=0;exitDy=0;" edge="1" parent="1" source="c_FFXOvCavrH5ceKtot7-67" target="c_FFXOvCavrH5ceKtot7-73">
          <mxGeometry relative="1" as="geometry">
            <mxPoint x="611.5" y="570" as="sourcePoint" />
            <mxPoint x="611.5" y="600" as="targetPoint" />
            <Array as="points">
              <mxPoint x="218" y="830" />
            </Array>
          </mxGeometry>
        </mxCell>
        <mxCell id="c_FFXOvCavrH5ceKtot7-69" value="NÃO" style="edgeLabel;html=1;align=center;verticalAlign=middle;resizable=0;points=[];" vertex="1" connectable="0" parent="c_FFXOvCavrH5ceKtot7-68">
          <mxGeometry x="-0.3333" relative="1" as="geometry">
            <mxPoint x="-19" as="offset" />
          </mxGeometry>
        </mxCell>
        <mxCell id="c_FFXOvCavrH5ceKtot7-70" value="" style="endArrow=open;strokeColor=#FF0000;endFill=1;rounded=0;entryX=0.5;entryY=0;entryDx=0;entryDy=0;exitX=0.5;exitY=1;exitDx=0;exitDy=0;" edge="1" parent="1" source="c_FFXOvCavrH5ceKtot7-66" target="c_FFXOvCavrH5ceKtot7-67">
          <mxGeometry relative="1" as="geometry">
            <mxPoint x="285" y="690" as="sourcePoint" />
            <mxPoint x="305" y="820" as="targetPoint" />
            <Array as="points" />
          </mxGeometry>
        </mxCell>
        <mxCell id="c_FFXOvCavrH5ceKtot7-72" value="" style="endArrow=open;strokeColor=#FF0000;endFill=1;rounded=0;exitX=0;exitY=0.5;exitDx=0;exitDy=0;entryX=0.5;entryY=0;entryDx=0;entryDy=0;" edge="1" parent="1" source="c_FFXOvCavrH5ceKtot7-64" target="c_FFXOvCavrH5ceKtot7-66">
          <mxGeometry relative="1" as="geometry">
            <mxPoint x="503" y="505" as="sourcePoint" />
            <mxPoint x="270" y="530" as="targetPoint" />
            <Array as="points">
              <mxPoint x="280" y="505" />
            </Array>
          </mxGeometry>
        </mxCell>
        <mxCell id="c_FFXOvCavrH5ceKtot7-73" value="" style="rhombus;whiteSpace=wrap;html=1;" vertex="1" parent="1">
          <mxGeometry x="260" y="810" width="40" height="40" as="geometry" />
        </mxCell>
        <mxCell id="c_FFXOvCavrH5ceKtot7-74" value="" style="endArrow=open;strokeColor=#FF0000;endFill=1;rounded=0;entryX=0.5;entryY=0;entryDx=0;entryDy=0;exitX=0.5;exitY=1;exitDx=0;exitDy=0;" edge="1" parent="1" source="c_FFXOvCavrH5ceKtot7-73" target="c_FFXOvCavrH5ceKtot7-56">
          <mxGeometry relative="1" as="geometry">
            <mxPoint x="370" y="832.5" as="sourcePoint" />
            <mxPoint x="412" y="957.5" as="targetPoint" />
            <Array as="points">
              <mxPoint x="280" y="860" />
            </Array>
          </mxGeometry>
        </mxCell>
        <mxCell id="c_FFXOvCavrH5ceKtot7-76" value="Clica no ícone de chamados" style="whiteSpace=wrap;" vertex="1" parent="1">
          <mxGeometry x="236.25" y="710" width="87.5" height="50" as="geometry" />
        </mxCell>
        <mxCell id="c_FFXOvCavrH5ceKtot7-77" value="" style="endArrow=open;strokeColor=#FF0000;endFill=1;rounded=0;entryX=0.5;entryY=0;entryDx=0;entryDy=0;exitX=0.5;exitY=1;exitDx=0;exitDy=0;" edge="1" parent="1" source="c_FFXOvCavrH5ceKtot7-67" target="c_FFXOvCavrH5ceKtot7-76">
          <mxGeometry relative="1" as="geometry">
            <mxPoint x="290" y="590" as="sourcePoint" />
            <mxPoint x="290" y="620" as="targetPoint" />
            <Array as="points" />
          </mxGeometry>
        </mxCell>
        <mxCell id="c_FFXOvCavrH5ceKtot7-81" value="SIM" style="edgeLabel;html=1;align=center;verticalAlign=middle;resizable=0;points=[];" vertex="1" connectable="0" parent="c_FFXOvCavrH5ceKtot7-77">
          <mxGeometry x="-0.3563" y="-1" relative="1" as="geometry">
            <mxPoint x="16" as="offset" />
          </mxGeometry>
        </mxCell>
        <mxCell id="c_FFXOvCavrH5ceKtot7-78" value="Expande lista de chamados" style="rounded=0;whiteSpace=wrap;html=1;" vertex="1" parent="1">
          <mxGeometry x="527.25" y="760" width="107.75" height="34" as="geometry" />
        </mxCell>
        <mxCell id="c_FFXOvCavrH5ceKtot7-79" value="" style="endArrow=open;strokeColor=#FF0000;endFill=1;rounded=0;entryX=0.5;entryY=0;entryDx=0;entryDy=0;exitX=1;exitY=0.5;exitDx=0;exitDy=0;" edge="1" parent="1" source="c_FFXOvCavrH5ceKtot7-76" target="c_FFXOvCavrH5ceKtot7-78">
          <mxGeometry relative="1" as="geometry">
            <mxPoint x="228" y="655" as="sourcePoint" />
            <mxPoint x="270" y="840" as="targetPoint" />
            <Array as="points">
              <mxPoint x="580" y="735" />
            </Array>
          </mxGeometry>
        </mxCell>
        <mxCell id="c_FFXOvCavrH5ceKtot7-82" value="" style="endArrow=open;strokeColor=#FF0000;endFill=1;rounded=0;entryX=1;entryY=0.5;entryDx=0;entryDy=0;exitX=0.5;exitY=1;exitDx=0;exitDy=0;" edge="1" parent="1" source="c_FFXOvCavrH5ceKtot7-78" target="c_FFXOvCavrH5ceKtot7-73">
          <mxGeometry relative="1" as="geometry">
            <mxPoint x="452.62" y="900" as="sourcePoint" />
            <mxPoint x="709.62" y="925" as="targetPoint" />
            <Array as="points">
              <mxPoint x="580" y="830" />
            </Array>
          </mxGeometry>
        </mxCell>
      </root>
    </mxGraphModel>
  </diagram>
</mxfile>
